<?xml version="1.0" standalone="no"?>
<!DOCTYPE svg PUBLIC "-//W3C//DTD SVG 20010904//EN"
 "http://www.w3.org/TR/2001/REC-SVG-20010904/DTD/svg10.dtd">
<svg version="1.0" xmlns="http://www.w3.org/2000/svg"
 width="192.000000pt" height="192.000000pt" viewBox="0 0 192.000000 192.000000"
 preserveAspectRatio="xMidYMid meet">

<g transform="translate(0.000000,192.000000) scale(0.100000,-0.100000)"
fill="#000000" stroke="none">
<path d="M1510 1900 c-150 -59 -475 -232 -484 -257 -3 -6 2 -19 9 -30 13 -17
17 -16 82 20 87 49 404 207 415 207 4 0 8 -279 8 -619 l0 -619 -107 -43 c-60
-24 -182 -80 -272 -126 -89 -46 -165 -83 -167 -83 -2 0 -5 280 -6 623 l-3 622
-85 29 c-75 26 -102 30 -230 34 -153 4 -318 -12 -460 -46 l-75 -17 0 -730 0
-730 30 1 c17 0 84 11 150 23 173 32 388 39 490 16 117 -26 127 -32 123 -74
l-3 -36 -383 -3 c-318 -2 -388 0 -417 13 -66 27 -65 11 -65 720 0 558 -2 636
-15 641 -8 4 -22 1 -30 -6 -13 -11 -15 -99 -15 -657 0 -718 -3 -687 68 -741
l35 -27 857 0 857 0 37 29 c68 52 66 26 66 739 0 558 -2 646 -15 657 -8 7 -22
10 -30 6 -13 -5 -15 -83 -15 -641 0 -709 1 -693 -65 -720 -29 -13 -99 -15
-417 -13 l-383 3 -3 37 c-3 35 -1 37 35 47 125 35 199 44 338 38 140 -6 202
-14 327 -43 38 -9 75 -14 83 -10 13 5 15 95 15 730 0 461 -4 727 -10 731 -5 3
-31 8 -58 12 -41 4 -50 2 -56 -12 -8 -22 7 -41 39 -49 l25 -6 0 -671 c0 -369
-4 -668 -8 -665 -18 11 -205 38 -316 46 -136 10 -253 0 -368 -32 l-77 -21 -68
22 c-105 33 -204 42 -360 31 -121 -9 -271 -30 -325 -46 -17 -5 -18 31 -18 665
0 374 4 672 9 675 5 3 66 15 137 27 91 16 176 22 289 23 140 1 169 -2 233 -22
l72 -23 0 -640 c0 -566 2 -640 15 -646 9 -3 111 43 243 109 125 63 263 127
307 143 44 15 86 32 93 38 17 14 18 1337 0 1355 -15 15 -22 14 -78 -8z"/>
<path d="M1275 1516 c-176 -77 -187 -83 -183 -109 5 -33 39 -32 110 4 34 18
99 47 143 65 88 36 106 53 86 78 -8 9 -19 16 -25 16 -6 -1 -65 -25 -131 -54z"/>
<path d="M1315 1341 c-131 -55 -215 -100 -222 -117 -3 -9 1 -22 8 -29 12 -12
36 -4 159 51 80 36 152 68 160 73 22 12 24 38 3 50 -14 7 -40 0 -108 -28z"/>
<path d="M411 1325 c-80 -15 -95 -23 -89 -51 4 -23 24 -23 180 -3 80 10 126
10 190 2 67 -8 86 -7 98 4 20 18 2 46 -36 54 -52 12 -267 8 -343 -6z"/>
<path d="M1335 1159 c-27 -10 -93 -41 -145 -67 -70 -35 -96 -53 -98 -68 -6
-39 27 -34 161 26 178 81 182 83 182 105 0 28 -38 29 -100 4z"/>
<path d="M421 1135 c-78 -14 -108 -33 -97 -60 5 -13 15 -16 44 -12 239 30 244
30 324 19 60 -9 85 -9 95 -1 19 17 16 37 -9 50 -34 19 -268 21 -357 4z"/>
<path d="M1290 947 c-183 -84 -195 -91 -198 -115 -5 -34 24 -38 77 -12 25 13
96 45 156 72 94 40 110 51 110 70 0 37 -40 33 -145 -15z"/>
<path d="M458 949 c-88 -13 -120 -23 -132 -43 -9 -13 -7 -20 6 -30 15 -11 31
-10 90 1 62 12 230 17 332 10 32 -2 58 25 40 43 -27 27 -211 38 -336 19z"/>
<path d="M1359 785 c-20 -7 -89 -38 -153 -68 -94 -45 -116 -60 -116 -77 0 -11
7 -23 15 -27 9 -3 71 20 138 50 67 30 139 62 160 71 38 15 46 33 25 54 -15 15
-23 14 -69 -3z"/>
<path d="M475 759 c-136 -19 -178 -40 -144 -75 13 -12 26 -12 94 2 57 11 122
15 225 12 l145 -3 0 24 c0 19 -7 27 -30 33 -49 13 -215 17 -290 7z"/>
<path d="M550 574 c-75 -6 -194 -26 -212 -35 -21 -12 -23 -32 -4 -48 10 -9 36
-7 107 5 71 12 126 15 222 11 108 -5 129 -4 134 8 8 23 -14 43 -55 49 -64 9
-145 13 -192 10z"/>
</g>
</svg>
