<?xml version="1.0" standalone="no"?>
<!DOCTYPE svg PUBLIC "-//W3C//DTD SVG 20010904//EN"
 "http://www.w3.org/TR/2001/REC-SVG-20010904/DTD/svg10.dtd">
<svg version="1.0" xmlns="http://www.w3.org/2000/svg"
 width="206.000000pt" height="206.000000pt" viewBox="0 0 206.000000 206.000000"
 preserveAspectRatio="xMidYMid meet">

<g transform="translate(0.000000,206.000000) scale(0.100000,-0.100000)"
fill="#000000" stroke="none">
<path d="M485 1993 c-59 -16 -87 -54 -95 -133 l-5 -55 -110 -5 c-94 -4 -115
-8 -143 -28 -71 -51 -67 -10 -67 -772 0 -766 -4 -719 72 -777 l36 -28 485 0
c442 0 486 1 495 17 8 12 7 21 -2 32 -12 14 -67 16 -488 16 l-475 0 -29 29
-29 29 0 516 0 516 900 0 900 0 2 -281 c3 -254 5 -283 20 -293 41 -26 43 -9
43 462 0 496 1 485 -67 534 -28 20 -49 24 -143 28 l-110 5 -5 55 c-3 30 -11
64 -17 76 -42 75 -174 75 -216 0 -6 -12 -14 -46 -17 -76 l-5 -55 -127 -3 -128
-3 0 48 c0 83 -57 148 -130 148 -73 0 -130 -65 -130 -148 l0 -48 -127 3 -128
3 -5 55 c-6 63 -19 91 -52 112 -28 18 -75 28 -103 21z m75 -83 c18 -18 20 -33
20 -140 0 -107 -2 -122 -20 -140 -11 -11 -31 -20 -45 -20 -14 0 -34 9 -45 20
-18 18 -20 33 -20 140 0 107 2 122 20 140 11 11 31 20 45 20 14 0 34 -9 45
-20z m512 3 c16 -14 18 -33 18 -141 0 -103 -3 -129 -17 -144 -20 -22 -51 -23
-81 -2 -21 14 -22 22 -22 141 0 104 3 130 17 145 20 22 61 23 85 1z m518 -3
c18 -18 20 -33 20 -140 0 -107 -2 -122 -20 -140 -11 -11 -31 -20 -45 -20 -14
0 -34 9 -45 20 -18 18 -20 33 -20 140 0 107 2 122 20 140 11 11 31 20 45 20
14 0 34 -9 45 -20z m-1200 -220 c0 -89 45 -140 125 -140 80 0 125 51 125 140
l0 50 130 0 130 0 0 -45 c0 -88 51 -145 130 -145 79 0 130 57 130 145 l0 45
130 0 130 0 0 -50 c0 -89 45 -140 125 -140 80 0 125 51 125 140 l0 50 91 0
c154 0 168 -17 169 -192 l0 -128 -900 0 -900 0 0 128 c1 175 14 191 168 192
l92 0 0 -50z"/>
<path d="M340 1170 c-16 -16 -20 -33 -20 -88 0 -104 9 -112 130 -112 121 0
130 8 130 112 0 97 -13 108 -130 108 -77 0 -93 -3 -110 -20z m170 -90 l0 -50
-60 0 -60 0 0 50 0 50 60 0 60 0 0 -50z"/>
<path d="M732 1174 c-20 -13 -22 -24 -22 -93 0 -105 7 -111 132 -111 118 0
123 4 123 105 0 104 -12 115 -124 115 -62 0 -93 -4 -109 -16z m168 -94 l0 -50
-65 0 -65 0 0 43 c0 24 3 47 7 50 3 4 33 7 65 7 l58 0 0 -50z"/>
<path d="M1111 1164 c-35 -44 -26 -160 13 -186 6 -4 52 -8 102 -8 116 0 124 7
124 108 0 102 -12 112 -129 112 -85 0 -91 -1 -110 -26z m177 -86 l3 -48 -65 0
-66 0 0 50 0 51 63 -3 62 -3 3 -47z"/>
<path d="M1500 1170 c-16 -16 -20 -33 -20 -88 0 -105 9 -112 130 -112 95 0
100 1 116 25 12 19 15 42 12 96 -5 92 -14 99 -130 99 -75 0 -91 -3 -108 -20z
m170 -90 l0 -50 -60 0 -60 0 0 50 0 50 60 0 60 0 0 -50z"/>
<path d="M340 880 c-16 -16 -20 -33 -20 -88 0 -104 9 -112 130 -112 121 0 130
8 130 112 0 97 -13 108 -130 108 -77 0 -93 -3 -110 -20z m170 -90 l0 -50 -60
0 -60 0 0 50 0 50 60 0 60 0 0 -50z"/>
<path d="M727 882 c-13 -14 -17 -38 -17 -94 0 -102 7 -108 132 -108 118 0 123
4 123 105 0 105 -11 115 -130 115 -76 0 -95 -3 -108 -18z m173 -92 l0 -50 -65
0 -65 0 0 50 0 50 65 0 65 0 0 -50z"/>
<path d="M1111 874 c-24 -31 -29 -115 -9 -159 12 -26 47 -41 73 -31 19 7 19
45 0 52 -10 4 -15 21 -15 55 l0 48 78 3 c75 3 77 4 77 28 0 25 -1 25 -91 28
-89 3 -93 2 -113 -24z"/>
<path d="M1455 882 c-169 -59 -282 -201 -293 -369 -11 -179 81 -334 246 -411
51 -24 68 -27 172 -27 107 0 119 2 175 29 77 38 163 124 201 201 27 56 29 68
29 175 0 104 -3 121 -27 172 -35 76 -80 130 -143 173 -102 71 -252 94 -360 57z
m270 -81 c75 -35 140 -99 174 -171 22 -46 26 -69 26 -145 0 -82 -3 -97 -33
-157 -38 -77 -92 -130 -171 -167 -47 -22 -70 -26 -146 -26 -78 0 -97 4 -147
28 -75 37 -135 98 -171 176 -26 54 -31 77 -30 140 0 264 261 432 498 322z"/>
<path d="M1646 501 l-132 -131 -61 60 c-65 64 -86 72 -104 39 -10 -19 -3 -29
70 -100 44 -43 86 -79 93 -79 7 0 81 68 163 150 126 126 148 153 139 167 -6 9
-16 19 -23 21 -7 2 -72 -55 -145 -127z"/>
<path d="M340 590 c-16 -16 -20 -33 -20 -88 0 -104 9 -112 130 -112 121 0 130
8 130 112 0 97 -13 108 -130 108 -77 0 -93 -3 -110 -20z m170 -90 l0 -50 -60
0 -60 0 0 50 0 50 60 0 60 0 0 -50z"/>
<path d="M727 592 c-25 -28 -24 -163 1 -185 26 -23 193 -24 216 -2 32 33 32
150 -2 188 -23 26 -192 25 -215 -1z m173 -92 l0 -50 -65 0 -65 0 0 50 0 50 65
0 65 0 0 -50z"/>
</g>
</svg>
