<?xml version="1.0" standalone="no"?>
<!DOCTYPE svg PUBLIC "-//W3C//DTD SVG 20010904//EN"
 "http://www.w3.org/TR/2001/REC-SVG-20010904/DTD/svg10.dtd">
<svg version="1.0" xmlns="http://www.w3.org/2000/svg"
 width="224.000000pt" height="226.000000pt" viewBox="0 0 224.000000 226.000000"
 preserveAspectRatio="xMidYMid meet">

<g transform="translate(0.000000,226.000000) scale(0.100000,-0.100000)"
fill="#000000" stroke="none">
<path d="M504 2099 c-88 -10 -172 -41 -226 -82 -49 -38 -54 -49 -32 -71 15
-15 18 -15 48 4 90 61 187 90 301 90 145 0 257 -41 329 -121 56 -62 76 -120
83 -237 l6 -94 -31 16 c-17 9 -42 16 -55 16 -21 0 -25 7 -36 55 -12 53 -44 99
-84 121 -15 9 -16 15 -8 37 8 20 7 30 -5 42 -9 8 -19 15 -24 15 -5 0 -34 -37
-64 -82 -87 -134 -222 -252 -360 -320 -46 -22 -46 -22 -46 -73 0 -81 26 -143
87 -203 l53 -53 0 -65 0 -64 -94 0 -93 0 -7 38 c-36 214 -66 471 -66 576 0 39
7 98 16 133 18 73 14 96 -18 91 -74 -10 -79 -299 -13 -715 20 -124 21 -121
-22 -132 -55 -15 -108 -55 -127 -94 -14 -30 -16 -79 -16 -356 l0 -321 36 -39
c54 -61 148 -73 224 -30 20 11 114 15 480 19 l455 5 3 339 2 339 -25 45 -25
44 71 94 72 94 168 0 169 0 0 -25 c0 -14 -8 -29 -21 -35 -28 -16 -52 -75 -44
-111 13 -60 89 -95 148 -68 28 13 57 58 57 89 0 30 -26 77 -50 90 -12 6 -20
21 -20 35 l0 25 221 0 c133 0 228 4 240 10 18 10 19 25 19 368 l0 358 30 11
c29 11 30 13 30 81 0 54 -3 71 -16 76 -9 3 -265 6 -569 6 l-554 0 -15 -22
c-23 -33 -21 -103 4 -128 11 -11 27 -20 35 -20 13 0 15 -46 15 -353 0 -330 1
-355 18 -370 10 -10 24 -17 30 -17 7 0 12 -3 12 -6 0 -9 -102 -144 -109 -144
-3 0 -23 5 -45 11 -37 10 -38 11 -32 47 48 273 74 581 58 676 -14 88 -60 184
-111 235 -96 96 -271 142 -457 120z m1676 -109 c0 -20 -7 -20 -520 -20 -513 0
-520 0 -520 20 0 20 7 20 520 20 513 0 520 0 520 -20z m-62 -427 l-3 -338
-382 -3 c-211 -1 -383 1 -383 6 0 4 14 27 31 50 34 46 35 75 2 80 -16 2 -33
-12 -69 -60 -54 -71 -62 -78 -86 -78 -17 0 -18 23 -18 340 l0 340 455 0 455 0
-2 -337z m-1313 147 c18 -19 20 -39 23 -168 4 -168 -5 -213 -54 -271 -47 -55
-103 -74 -198 -69 -63 3 -81 8 -117 33 -44 31 -82 93 -94 151 -6 30 -4 33 60
68 94 53 203 144 270 226 61 75 68 76 110 30z m153 -172 c15 -15 15 -61 0 -76
-7 -7 -22 -12 -35 -12 -21 0 -23 4 -23 50 0 46 2 50 23 50 13 0 28 -5 35 -12z
m32 -165 c0 -27 -34 -260 -46 -315 l-6 -28 -94 0 -94 0 0 66 0 66 46 41 c44
39 94 122 94 158 0 13 29 25 93 38 4 0 7 -11 7 -26z m-302 -292 l3 -51 -90 0
-91 0 0 53 0 52 87 -1 88 -1 3 -52z m996 -37 c22 -8 20 -51 -2 -63 -37 -20
-70 27 -40 57 14 14 20 14 42 6z m-1334 -121 c64 -94 163 -122 222 -63 l30 30
34 -30 c63 -55 134 -36 210 54 l38 46 76 0 c42 0 79 -3 83 -6 3 -4 -17 -36
-44 -73 l-51 -66 -66 0 -67 -1 -275 -160 -275 -160 -3 41 c-4 65 -11 85 -30
85 -34 0 -42 -21 -42 -111 0 -68 4 -89 16 -100 19 -15 29 -10 293 144 170 99
159 98 202 18 23 -42 23 -44 5 -55 -43 -26 -66 -49 -66 -66 0 -40 34 -30 178
52 171 98 185 114 179 203 -4 59 -3 60 52 133 85 112 85 109 89 -263 l3 -305
-70 0 -71 0 0 100 c0 84 -3 102 -16 107 -38 14 -49 -10 -52 -111 l-3 -96 -251
0 c-138 0 -249 3 -245 6 3 3 34 23 69 43 65 38 79 64 47 84 -13 8 -53 -11
-185 -87 -158 -91 -172 -97 -214 -93 -32 4 -51 12 -67 32 -23 26 -23 28 -23
325 l0 298 27 32 c36 43 54 49 153 49 l85 1 25 -37z m201 19 c-17 -32 -49 -54
-69 -48 -10 4 -31 20 -47 36 l-29 30 77 0 c71 0 77 -2 68 -18z m233 -3 c-31
-35 -71 -51 -94 -39 -18 9 -40 40 -40 54 0 3 34 6 77 6 l76 0 -19 -21z m139
-211 c36 -42 16 -79 -74 -132 -34 -20 -63 -35 -64 -34 -1 2 -17 27 -36 57
l-33 54 23 16 c13 9 47 28 75 43 55 30 80 29 109 -4z"/>
<path d="M513 1383 c-7 -2 -13 -15 -13 -29 0 -54 129 -76 176 -29 20 20 23 28
14 45 -13 24 -23 25 -56 3 -21 -13 -32 -14 -53 -6 -49 20 -56 21 -68 16z"/>
</g>
</svg>
