<?xml version="1.0" standalone="no"?>
<!DOCTYPE svg PUBLIC "-//W3C//DTD SVG 20010904//EN"
 "http://www.w3.org/TR/2001/REC-SVG-20010904/DTD/svg10.dtd">
<svg version="1.0" xmlns="http://www.w3.org/2000/svg"
 width="188.000000pt" height="188.000000pt" viewBox="0 0 188.000000 188.000000"
 preserveAspectRatio="xMidYMid meet">

<g transform="translate(0.000000,188.000000) scale(0.100000,-0.100000)"
fill="#000000" stroke="none">
<path d="M907 1863 c-8 -10 -30 -48 -47 -85 l-32 -66 -71 -11 c-107 -17 -122
-23 -125 -51 -2 -19 12 -39 61 -88 l63 -63 -14 -91 c-15 -90 -15 -91 7 -109
24 -20 23 -20 134 36 l57 29 68 -34 c100 -51 99 -51 123 -31 22 18 22 18 7
109 l-14 91 63 63 c90 89 85 118 -22 132 -117 16 -111 12 -145 84 -37 77 -56
102 -80 102 -9 0 -24 -8 -33 -17z m58 -115 c38 -86 47 -94 128 -107 l74 -12
-56 -54 -55 -53 12 -73 c7 -39 11 -74 8 -76 -2 -2 -33 11 -70 29 l-66 32 -66
-33 c-36 -18 -67 -31 -70 -29 -2 3 1 38 8 78 l13 73 -59 53 c-32 30 -55 54
-50 54 34 0 141 23 152 32 7 7 25 38 39 70 15 32 29 58 33 58 4 0 15 -19 25
-42z"/>
<path d="M412 1588 c-5 -7 -20 -33 -32 -58 -27 -54 -30 -56 -88 -64 -84 -11
-93 -41 -32 -101 l41 -40 -3 -74 c-4 -98 9 -108 87 -66 l55 30 49 -27 c56 -32
73 -34 91 -13 9 11 10 29 1 77 l-11 63 45 45 c64 65 59 92 -20 105 -70 12 -77
16 -96 61 -31 68 -63 91 -87 62z m47 -127 c20 -38 42 -51 90 -51 25 0 25 0 -8
-34 -32 -33 -34 -38 -28 -85 l6 -50 -36 21 c-36 22 -36 22 -106 -7 -17 -7 -18
-4 -12 37 6 41 4 48 -25 82 l-32 36 25 0 c47 0 75 17 87 54 6 20 13 36 16 36
2 0 12 -17 23 -39z"/>
<path d="M1422 1593 c-7 -3 -24 -29 -37 -58 -23 -54 -29 -58 -100 -70 -79 -13
-83 -36 -20 -104 l45 -48 -11 -61 c-9 -48 -8 -66 1 -77 18 -21 35 -19 92 12
l50 27 54 -29 c77 -42 90 -32 86 66 l-3 74 41 40 c63 61 53 86 -40 103 -30 6
-56 14 -57 19 -2 4 -16 30 -31 58 -26 48 -43 60 -70 48z m104 -179 l44 -6 -31
-36 c-28 -31 -30 -39 -24 -80 6 -41 5 -44 -12 -37 -70 29 -70 29 -106 7 l-36
-21 6 50 c6 47 4 52 -28 85 -33 34 -33 34 -8 34 49 0 70 13 91 53 l21 41 19
-41 c18 -38 24 -43 64 -49z"/>
<path d="M709 1167 c-19 -13 -78 -56 -131 -95 -53 -40 -103 -72 -111 -72 -8 0
-22 11 -31 25 -9 14 -33 29 -57 35 -23 6 -51 23 -63 37 -20 23 -35 27 -150 42
l-128 16 -19 -24 c-18 -22 -19 -45 -19 -392 0 -427 -6 -401 99 -413 80 -9 106
6 122 69 11 44 11 44 55 43 28 0 51 5 63 16 27 25 45 21 27 -6 -27 -39 -20
-86 18 -124 19 -19 43 -34 55 -34 14 0 21 -6 21 -19 0 -29 38 -70 73 -79 22
-5 33 -15 35 -29 5 -36 47 -72 91 -79 28 -4 42 -13 47 -26 7 -24 61 -58 92
-58 31 0 60 16 99 53 l32 30 31 -27 c54 -45 146 -26 165 34 4 12 15 20 28 20
31 0 85 36 99 65 6 14 20 25 30 25 28 0 76 27 88 49 5 11 10 32 10 48 0 21 8
32 31 45 18 11 37 34 47 58 20 48 49 59 86 35 18 -12 38 -16 65 -12 39 5 39 5
50 -39 16 -64 44 -79 122 -65 106 18 99 -12 99 418 0 466 18 430 -190 393
-126 -23 -157 -34 -165 -61 -4 -11 -20 -21 -41 -25 -20 -4 -44 -18 -58 -35
-14 -16 -32 -29 -42 -29 -9 0 -69 34 -133 76 -127 84 -164 99 -213 86 -25 -6
-57 -1 -133 20 -122 34 -152 35 -196 5z m117 -48 c53 -14 56 -25 8 -34 -69
-13 -104 -38 -175 -128 -39 -48 -75 -100 -80 -115 -32 -84 57 -178 151 -157
19 4 58 36 112 91 113 116 106 117 277 -48 75 -73 169 -164 209 -203 57 -54
72 -75 70 -94 -4 -35 -31 -48 -62 -32 -49 27 -78 -16 -36 -54 26 -24 26 -61
-1 -76 -18 -9 -27 -7 -50 10 -32 23 -65 27 -72 9 -2 -7 3 -27 11 -45 28 -58
-21 -84 -79 -41 -28 21 -30 21 -46 5 -15 -14 -15 -21 -5 -37 23 -38 8 -80 -29
-80 -27 0 -71 47 -64 70 9 29 -23 87 -55 102 -21 9 -30 21 -34 49 -7 45 -55
89 -97 89 -21 0 -32 7 -43 28 -16 31 -53 52 -91 52 -15 0 -26 7 -30 20 -18 56
-110 79 -164 41 -28 -21 -81 -18 -81 4 0 12 41 242 61 343 10 50 12 52 43 52
25 0 60 21 160 95 70 52 132 95 137 95 6 0 30 -5 55 -11z m-686 -39 c134 -20
130 -19 130 -44 0 -36 -110 -640 -118 -647 -4 -4 -25 -4 -47 0 l-40 6 -3 348
c-1 191 1 347 5 347 5 0 37 -5 73 -10z m1680 -340 l0 -350 -27 -5 c-58 -12
-63 -13 -67 -6 -6 9 -146 639 -146 655 0 10 117 38 233 55 4 0 7 -156 7 -349z
m-602 264 c120 -79 162 -100 187 -91 10 5 18 -13 31 -71 9 -42 29 -131 44
-197 15 -66 25 -123 21 -127 -3 -4 -17 -9 -31 -12 -22 -6 -52 19 -239 199
-118 113 -226 208 -239 212 -13 3 -42 3 -65 0 -37 -5 -52 -16 -118 -86 -70
-75 -88 -87 -129 -81 -24 3 -42 26 -42 53 -1 31 123 192 155 204 74 26 247 71
276 72 27 1 59 -15 149 -75z m-838 -24 c0 -11 -18 -120 -40 -241 -22 -122 -40
-225 -40 -230 0 -5 -14 -9 -31 -9 -24 0 -29 4 -25 18 3 9 21 109 41 222 19
113 38 217 41 233 4 20 11 27 30 27 17 0 24 -6 24 -20z m1200 -244 c53 -244
54 -255 13 -256 -15 0 -13 -7 -68 250 -25 118 -48 221 -50 228 -5 14 36 34 46
23 4 -3 30 -113 59 -245z m-1032 -248 c21 -21 13 -47 -31 -93 -46 -48 -66 -54
-91 -29 -23 23 -20 34 25 87 41 48 73 59 97 35z m132 -87 c16 -30 13 -36 -41
-95 -51 -56 -82 -69 -107 -44 -21 21 -13 42 39 101 54 61 89 73 109 38z m124
-83 c19 -27 11 -44 -57 -116 -43 -45 -56 -53 -81 -50 -25 2 -32 8 -34 29 -2
19 11 40 60 92 35 37 71 67 80 67 9 0 24 -10 32 -22z m94 -140 c2 -18 -7 -37
-29 -62 -42 -49 -64 -60 -89 -46 -30 16 -24 46 17 96 31 38 41 45 67 42 25 -2
32 -8 34 -30z"/>
</g>
</svg>
