<?xml version="1.0" standalone="no"?>
<!DOCTYPE svg PUBLIC "-//W3C//DTD SVG 20010904//EN"
 "http://www.w3.org/TR/2001/REC-SVG-20010904/DTD/svg10.dtd">
<svg version="1.0" xmlns="http://www.w3.org/2000/svg"
 width="195.000000pt" height="190.000000pt" viewBox="0 0 195.000000 190.000000"
 preserveAspectRatio="xMidYMid meet">

<g transform="translate(0.000000,190.000000) scale(0.100000,-0.100000)"
fill="#000000" stroke="none">
<path d="M900 1885 c-14 -8 -191 -108 -395 -222 -284 -159 -371 -213 -373
-229 -2 -17 14 -28 102 -70 l106 -49 0 -47 c0 -44 -2 -47 -28 -50 l-27 -3 0
-160 0 -160 85 0 85 0 0 160 0 160 -27 3 c-24 3 -28 8 -28 33 0 37 4 36 134
-27 62 -31 95 -53 108 -74 10 -17 18 -32 18 -34 0 -2 -16 -13 -35 -25 -49 -28
-71 -82 -56 -132 13 -43 62 -89 96 -89 16 0 25 -7 29 -24 3 -13 26 -46 51 -74
30 -33 45 -59 45 -77 0 -21 -4 -26 -17 -21 -11 5 -31 -8 -65 -41 -41 -40 -58
-49 -109 -60 -150 -30 -293 -171 -334 -328 -8 -33 -15 -101 -15 -152 l0 -93
726 0 726 0 -4 118 c-4 87 -10 131 -27 172 -56 143 -200 266 -334 286 -32 5
-54 18 -93 56 -35 34 -56 47 -67 42 -13 -5 -17 0 -17 21 0 18 15 44 45 77 25
28 48 61 51 74 4 16 13 24 29 24 31 0 75 37 91 77 25 60 0 116 -71 158 -16 10
-16 12 2 42 19 33 19 34 391 209 104 49 122 61 120 78 -3 21 -13 27 -508 303
-74 42 -169 95 -211 119 -62 36 -85 44 -125 44 -27 -1 -60 -7 -74 -15z m374
-197 c160 -88 326 -181 370 -206 l79 -45 -59 -30 c-74 -38 -311 -147 -318
-147 -4 0 -6 53 -6 118 0 137 -7 152 -77 176 -173 59 -577 37 -635 -34 -15
-19 -18 -42 -18 -141 0 -65 -3 -119 -6 -119 -3 0 -51 21 -105 47 l-99 46 0 91
0 91 283 157 c155 87 286 158 291 158 5 0 140 -73 300 -162z m-137 -169 c43
-6 92 -17 110 -24 31 -13 33 -16 33 -68 l0 -54 -52 15 c-76 22 -431 22 -505 0
l-53 -15 0 54 c0 52 1 55 34 68 76 32 291 44 433 24z m-799 -108 l-3 -29 -54
27 -54 28 54 31 54 31 3 -29 c2 -17 2 -43 0 -59z m815 -72 c101 -16 127 -31
127 -74 0 -19 -8 -50 -17 -70 l-17 -35 -103 0 c-137 0 -179 21 -208 107 -10
29 -18 38 -36 38 -19 0 -25 -7 -31 -41 -12 -58 -54 -96 -115 -101 -47 -5 -49
-4 -66 31 -9 20 -17 53 -17 72 0 31 4 37 35 50 19 8 58 18 87 23 77 13 278 13
361 0z m-213 -189 c54 -43 81 -50 186 -50 l94 0 0 -92 c0 -69 -5 -104 -19
-135 -85 -186 -355 -192 -446 -10 -21 44 -25 64 -25 144 l0 93 30 0 c38 0 106
34 122 60 7 11 14 20 16 20 2 0 21 -13 42 -30z m-540 -95 l0 -105 -30 0 -30 0
0 105 0 105 30 0 30 0 0 -105z m260 -47 c0 -18 3 -43 6 -56 5 -18 3 -21 -11
-16 -24 9 -36 49 -25 79 13 35 30 31 30 -7z m660 7 c11 -30 -1 -70 -25 -79
-14 -5 -16 -2 -11 16 3 13 6 38 6 56 0 38 17 42 30 7z m-340 -340 c41 0 85 4
98 8 21 8 22 6 22 -35 0 -39 -5 -48 -62 -105 l-62 -63 -63 62 c-58 57 -63 66
-63 105 0 42 1 43 28 36 15 -5 61 -8 102 -8z m-132 -158 l83 -83 -23 -21 -23
-22 -65 63 c-107 103 -106 102 -85 126 10 11 21 20 24 20 4 0 44 -37 89 -83z
m367 63 c17 -19 17 -21 -1 -42 -10 -13 -48 -51 -84 -85 l-64 -62 -23 21 -24
22 83 83 c45 46 85 83 89 83 3 0 14 -9 24 -20z m-455 -156 c52 -52 103 -100
112 -105 14 -8 27 -1 61 30 l44 41 29 -31 c57 -60 55 -61 174 57 105 103 110
107 145 101 111 -18 225 -111 277 -225 25 -54 32 -84 36 -159 l5 -93 -106 0
-106 0 -3 58 c-3 53 -5 57 -28 57 -23 0 -25 -4 -28 -57 l-3 -58 -394 0 -394 0
-3 58 c-3 53 -5 57 -28 57 -23 0 -25 -4 -28 -57 l-3 -58 -104 0 -105 0 0 68
c0 182 91 324 248 388 91 37 96 36 202 -72z"/>
</g>
</svg>
