<?xml version="1.0" standalone="no"?>
<!DOCTYPE svg PUBLIC "-//W3C//DTD SVG 20010904//EN"
 "http://www.w3.org/TR/2001/REC-SVG-20010904/DTD/svg10.dtd">
<svg version="1.0" xmlns="http://www.w3.org/2000/svg"
 width="190.000000pt" height="189.000000pt" viewBox="0 0 190.000000 189.000000"
 preserveAspectRatio="xMidYMid meet">

<g transform="translate(0.000000,189.000000) scale(0.100000,-0.100000)"
fill="#000000" stroke="none">
<path d="M690 1770 c-179 -64 -337 -127 -353 -139 -33 -27 -43 -61 -28 -102
10 -28 8 -33 -24 -63 -42 -40 -55 -72 -55 -135 0 -96 70 -155 199 -167 54 -5
95 -16 148 -42 53 -25 98 -37 159 -45 73 -9 87 -14 94 -31 5 -15 2 -27 -10
-41 -10 -11 -25 -48 -33 -83 -8 -35 -16 -64 -18 -66 -4 -2 -209 -86 -577 -234
-158 -64 -163 -67 -157 -92 4 -14 9 -27 11 -29 2 -3 100 34 217 81 l212 85 52
-155 c29 -86 52 -157 50 -158 -1 -1 -125 -52 -275 -114 -251 -104 -272 -115
-266 -134 10 -35 17 -36 74 -11 805 338 828 346 934 327 39 -7 39 -8 67 -90
l28 -83 -50 -48 c-40 -39 -49 -54 -49 -83 0 -28 22 -102 34 -115 2 -2 29 8 62
21 32 12 142 56 244 96 102 40 189 76 193 80 13 11 -23 88 -51 110 -19 15 -40
20 -88 20 l-64 0 -25 56 c-14 31 -25 62 -25 68 0 7 28 26 62 42 144 68 143 63
24 384 -62 165 -103 261 -117 273 -30 24 -66 21 -148 -12 -70 -30 -71 -30 -82
-9 -9 17 -6 26 20 57 59 68 109 151 121 200 7 28 26 66 44 88 69 80 86 113 86
167 0 91 -67 159 -157 159 -30 0 -43 5 -43 14 0 26 -57 73 -87 72 -15 -1 -174
-54 -353 -119z m418 -78 c72 -217 58 -308 -69 -454 -36 -43 -58 -76 -55 -85
21 -53 19 -62 -16 -76 -71 -30 -72 -29 -89 12 l-16 38 -85 6 c-47 4 -104 13
-127 22 -61 21 -126 70 -160 118 -30 44 -121 263 -121 291 0 20 7 24 210 96
96 35 234 85 305 111 72 26 141 48 155 48 24 1 28 -7 68 -127z m136 22 c38
-38 36 -98 -4 -144 -26 -31 -29 -33 -30 -14 0 19 -30 125 -47 170 -10 26 52
16 81 -12z m-884 -309 c0 -8 20 -53 44 -100 l44 -86 -36 6 c-60 10 -87 24
-105 54 -25 42 -21 84 9 120 26 31 44 33 44 6z m905 -322 c9 -20 12 -40 8 -44
-5 -3 -38 -16 -75 -28 -66 -22 -67 -22 -57 -51 l10 -28 71 24 c39 13 74 22 77
19 3 -3 13 -26 22 -50 l17 -45 -69 -22 c-69 -22 -80 -35 -60 -67 7 -11 19 -10
72 8 78 26 77 26 89 -4 26 -69 26 -70 -40 -90 -69 -21 -73 -25 -64 -59 l6 -24
71 24 c76 26 87 23 87 -24 0 -19 -20 -32 -132 -87 l-133 -65 -100 12 c-55 6
-105 16 -111 22 -7 6 -35 82 -64 169 -46 140 -51 164 -45 212 3 29 12 60 18
69 13 18 340 164 369 165 11 1 23 -13 33 -36z m-429 -447 l51 -153 -111 -46
c-61 -25 -117 -47 -125 -49 -9 -2 -28 41 -62 142 -27 79 -49 149 -49 155 0 9
60 39 65 32 1 -1 19 -53 40 -115 37 -112 38 -113 64 -107 14 4 27 8 28 9 2 1
-15 56 -37 121 -22 65 -39 119 -37 120 10 7 104 44 112 44 6 1 33 -68 61 -153z
m443 -259 c15 -35 17 -49 8 -52 -6 -3 -31 -11 -53 -19 l-42 -14 -21 55 c-26
67 -26 63 2 63 12 1 33 7 47 15 30 16 33 14 59 -48z m215 -123 c4 -9 5 -18 4
-19 -7 -5 -365 -144 -378 -147 -8 -2 -16 6 -18 17 -5 32 92 120 158 143 74 26
225 30 234 6z"/>
<path d="M948 1717 c-16 -12 -15 -17 10 -68 21 -42 28 -72 31 -136 3 -74 0
-87 -23 -127 -25 -43 -25 -44 -6 -61 25 -23 40 -11 72 53 39 81 25 228 -30
325 -18 30 -29 33 -54 14z"/>
<path d="M1540 1720 c0 -67 -54 -133 -120 -147 -25 -4 -30 -10 -30 -34 0 -24
5 -30 38 -38 63 -18 112 -83 112 -152 0 -26 3 -29 30 -29 27 0 30 3 30 30 0
69 55 138 123 154 22 5 27 12 27 35 0 24 -5 30 -31 35 -65 13 -119 81 -119
151 0 21 -5 25 -30 25 -27 0 -30 -3 -30 -30z m66 -151 l31 -30 -34 -34 -33
-33 -33 33 -34 34 31 30 c17 17 33 31 35 31 3 0 19 -14 37 -31z"/>
<path d="M190 1103 c0 -67 -68 -143 -127 -143 -20 0 -23 -5 -23 -35 0 -30 3
-35 23 -35 59 0 127 -76 127 -142 0 -35 2 -38 29 -38 26 0 29 4 35 41 13 79
53 125 121 139 25 5 30 11 30 35 0 24 -5 30 -30 35 -68 14 -108 60 -121 139
-6 37 -9 41 -35 41 -27 0 -29 -3 -29 -37z m68 -146 l32 -33 -33 -32 -33 -32
-35 32 -35 33 30 32 c17 17 33 32 37 32 3 1 19 -14 37 -32z"/>
<path d="M1660 1103 c0 -67 -68 -143 -127 -143 -20 0 -23 -5 -23 -35 0 -30 3
-35 23 -35 59 0 127 -76 127 -142 0 -35 2 -38 29 -38 26 0 29 4 35 42 12 75
55 124 121 138 25 5 30 11 30 34 0 26 -5 30 -48 43 -55 16 -92 63 -103 131 -6
38 -9 42 -35 42 -27 0 -29 -3 -29 -37z m68 -146 l32 -33 -33 -32 -33 -32 -35
32 -36 33 31 31 c17 17 33 32 37 33 3 0 19 -14 37 -32z"/>
</g>
</svg>
